<svg width="33" height="34" viewBox="0 0 33 34" fill="none" xmlns="http://www.w3.org/2000/svg">
<path d="M21.5 33V19.6667C21.5 19.2247 21.3244 18.8007 21.0118 18.4882C20.6993 18.1756 20.2754 18 19.8333 18H13.1667C12.7246 18 12.3007 18.1756 11.9882 18.4882C11.6756 18.8007 11.5 19.2247 11.5 19.6667V33M1.5 14.6667C1.49988 14.1818 1.60556 13.7027 1.80965 13.2629C2.01374 12.823 2.31133 12.433 2.68167 12.12L14.3483 2.12169C14.95 1.61321 15.7123 1.33423 16.5 1.33423C17.2877 1.33423 18.05 1.61321 18.6517 2.12169L30.3183 12.12C30.6887 12.433 30.9863 12.823 31.1904 13.2629C31.3944 13.7027 31.5001 14.1818 31.5 14.6667V29.6667C31.5 30.5507 31.1488 31.3986 30.5237 32.0237C29.8986 32.6488 29.0507 33 28.1667 33H4.83333C3.94928 33 3.10143 32.6488 2.47631 32.0237C1.85119 31.3986 1.5 30.5507 1.5 29.6667V14.6667Z" stroke="currentColor" stroke-width="2" stroke-linecap="round" stroke-linejoin="round"/>
</svg>
