<svg width="37" height="36" viewBox="0 0 37 36" fill="none" xmlns="http://www.w3.org/2000/svg">
<path d="M20.8333 1.33338H8.49992C7.61586 1.33338 6.76802 1.68457 6.1429 2.30969C5.51777 2.93481 5.16659 3.78266 5.16659 4.66671V31.3334C5.16659 32.2174 5.51777 33.0653 6.1429 33.6904C6.76802 34.3155 7.61586 34.6667 8.49992 34.6667H28.4999C29.384 34.6667 30.2318 34.3155 30.8569 33.6904C31.4821 33.0653 31.8333 32.2174 31.8333 31.3334V19M1.83325 8.00004H8.49992M1.83325 14.6667H8.49992M1.83325 21.3334H8.49992M1.83325 28H8.49992M34.1299 7.37671C34.7938 6.71279 35.1668 5.81231 35.1668 4.87338C35.1668 3.93445 34.7938 3.03397 34.1299 2.37004C33.466 1.70612 32.5655 1.33313 31.6266 1.33313C30.6877 1.33313 29.7872 1.70612 29.1233 2.37004L20.7733 10.7234C20.377 11.1194 20.087 11.6089 19.9299 12.1467L18.5349 16.93C18.4931 17.0735 18.4906 17.2255 18.5277 17.3702C18.5647 17.5149 18.64 17.647 18.7457 17.7526C18.8513 17.8583 18.9834 17.9336 19.1281 17.9706C19.2728 18.0077 19.4248 18.0052 19.5683 17.9634L24.3516 16.5684C24.8894 16.4113 25.3789 16.1213 25.7749 15.725L34.1299 7.37671Z" stroke="currentColor" stroke-width="2" stroke-linecap="round" stroke-linejoin="round"/>
</svg>
