<svg width="41" height="40" viewBox="0 0 41 40" fill="none" xmlns="http://www.w3.org/2000/svg">
<path d="M20.3333 25.6671L15.3333 20.6671M20.3333 25.6671C22.6614 24.7817 24.8948 23.665 27 22.3337M20.3333 25.6671V34.0004C20.3333 34.0004 25.3833 33.0837 27 30.6671C28.8 27.9671 27 22.3337 27 22.3337M15.3333 20.6671C16.2202 18.3661 17.337 16.1605 18.6667 14.0837C20.6086 10.9787 23.3127 8.42216 26.5217 6.65723C29.7306 4.8923 33.3378 3.9777 37 4.00041C37 8.53375 35.7 16.5004 27 22.3337M15.3333 20.6671H7C7 20.6671 7.91667 15.6171 10.3333 14.0004C13.0333 12.2004 18.6667 14.0004 18.6667 14.0004M7.83333 28.1671C5.33333 30.2671 4.5 36.5004 4.5 36.5004C4.5 36.5004 10.7333 35.6671 12.8333 33.1671C14.0167 31.7671 14 29.6171 12.6833 28.3171C12.0355 27.6988 11.1822 27.3415 10.287 27.3138C9.39193 27.2861 8.51813 27.59 7.83333 28.1671Z" stroke="currentColor" stroke-width="2" stroke-linecap="round" stroke-linejoin="round"/>
</svg>
