<svg width="41" height="40" viewBox="0 0 41 40" fill="none" xmlns="http://www.w3.org/2000/svg">
<path d="M20.8667 3.33331H20.1333C19.2493 3.33331 18.4014 3.6845 17.7763 4.30962C17.1512 4.93474 16.8 5.78259 16.8 6.66665V6.96665C16.7994 7.55119 16.6451 8.1253 16.3526 8.63137C16.06 9.13745 15.6396 9.55771 15.1333 9.84998L14.4167 10.2666C13.9099 10.5592 13.3351 10.7132 12.75 10.7132C12.1649 10.7132 11.5901 10.5592 11.0833 10.2666L10.8333 10.1333C10.0684 9.69208 9.15973 9.57239 8.30667 9.80049C7.45361 10.0286 6.72592 10.5859 6.28334 11.35L5.91667 11.9833C5.47544 12.7482 5.35574 13.6569 5.58385 14.51C5.81196 15.363 6.36923 16.0907 7.13334 16.5333L7.38334 16.7C7.88713 16.9908 8.30604 17.4085 8.59842 17.9114C8.89081 18.4143 9.04649 18.9849 9.05 19.5666V20.4166C9.05234 21.004 8.89942 21.5816 8.60674 22.0908C8.31406 22.6001 7.89202 23.023 7.38334 23.3166L7.13334 23.4666C6.36923 23.9092 5.81196 24.6369 5.58385 25.49C5.35574 26.343 5.47544 27.2518 5.91667 28.0166L6.28334 28.65C6.72592 29.4141 7.45361 29.9714 8.30667 30.1995C9.15973 30.4276 10.0684 30.3079 10.8333 29.8666L11.0833 29.7333C11.5901 29.4408 12.1649 29.2867 12.75 29.2867C13.3351 29.2867 13.9099 29.4408 14.4167 29.7333L15.1333 30.15C15.6396 30.4422 16.06 30.8625 16.3526 31.3686C16.6451 31.8747 16.7994 32.4488 16.8 33.0333V33.3333C16.8 34.2174 17.1512 35.0652 17.7763 35.6903C18.4014 36.3155 19.2493 36.6666 20.1333 36.6666H20.8667C21.7507 36.6666 22.5986 36.3155 23.2237 35.6903C23.8488 35.0652 24.2 34.2174 24.2 33.3333V33.0333C24.2006 32.4488 24.3549 31.8747 24.6474 31.3686C24.94 30.8625 25.3604 30.4422 25.8667 30.15L26.5833 29.7333C27.0901 29.4408 27.6649 29.2867 28.25 29.2867C28.8351 29.2867 29.4099 29.4408 29.9167 29.7333L30.1667 29.8666C30.9316 30.3079 31.8403 30.4276 32.6933 30.1995C33.5464 29.9714 34.2741 29.4141 34.7167 28.65L35.0833 28C35.5246 27.2351 35.6443 26.3264 35.4162 25.4733C35.188 24.6203 34.6308 23.8926 33.8667 23.45L33.6167 23.3166C33.108 23.023 32.6859 22.6001 32.3933 22.0908C32.1006 21.5816 31.9477 21.004 31.95 20.4166V19.5833C31.9477 18.9959 32.1006 18.4184 32.3933 17.9091C32.6859 17.3999 33.108 16.977 33.6167 16.6833L33.8667 16.5333C34.6308 16.0907 35.188 15.363 35.4162 14.51C35.6443 13.6569 35.5246 12.7482 35.0833 11.9833L34.7167 11.35C34.2741 10.5859 33.5464 10.0286 32.6933 9.80049C31.8403 9.57239 30.9316 9.69208 30.1667 10.1333L29.9167 10.2666C29.4099 10.5592 28.8351 10.7132 28.25 10.7132C27.6649 10.7132 27.0901 10.5592 26.5833 10.2666L25.8667 9.84998C25.3604 9.55771 24.94 9.13745 24.6474 8.63137C24.3549 8.1253 24.2006 7.55119 24.2 6.96665V6.66665C24.2 5.78259 23.8488 4.93474 23.2237 4.30962C22.5986 3.6845 21.7507 3.33331 20.8667 3.33331Z" stroke="currentColor" stroke-width="2" stroke-linecap="round" stroke-linejoin="round"/>
<path d="M20.5 25C23.2614 25 25.5 22.7614 25.5 20C25.5 17.2386 23.2614 15 20.5 15C17.7386 15 15.5 17.2386 15.5 20C15.5 22.7614 17.7386 25 20.5 25Z" stroke="#0BA4B3" stroke-width="2" stroke-linecap="round" stroke-linejoin="round"/>
</svg>
